# xmcd
#
# Track frame offsets: 
#        150
#        8580
#        27883
#        39688
#        50833
#        67678
#        76503
#        84690
#        93023
#        100770
#        108390
#        122563
#        135003
#        147228
#        162080
#        176463
#        187255
#        190943
#        203293
#        221778
#        232993
#
# Disc length: 3275 seconds
#
# Revision: 0
# Processed by: cddbd v1.5.2PL0 Copyright (c) Steve Scherf et al.
# Submitted via: ExactAudioCopy v0.95b3
#
DISCID=030cc915
DTITLE=Airiesjkwair - Booze, Sea and Affairs
DYEAR=1992
DGENRE=Koor
TTITLE0=Seafever
TTITLE1=Scarborough Fair
TTITLE2=The Ould Triangle
TTITLE3=Hill of Connemara
TTITLE4=Ride Onn
TTITLE5=Sally Brown
TTITLE6=The New Saint George
TTITLE7=Mason's Apron
TTITLE8=Gardens
TTITLE9=Mairie's Wedding
TTITLE10=Steal Away
TTITLE11=All Around My Hat
TTITLE12=Three Score And Ten
TTITLE13=Fare Thee Well Enniskillen
TTITLE14=The Grey Funnel Line
TTITLE15=On The Spot
TTITLE16=Bombo Lane
TTITLE17=Roll on the Day
TTITLE18=Hearts Lament
TTITLE19=Johnny Lad
TTITLE20=Will You Ga Lassie Go
EXTD=
EXTT0=
EXTT1=
EXTT2=
EXTT3=
EXTT4=
EXTT5=
EXTT6=
EXTT7=
EXTT8=
EXTT9=
EXTT10=
EXTT11=
EXTT12=
EXTT13=
EXTT14=
EXTT15=
EXTT16=
EXTT17=
EXTT18=
EXTT19=
EXTT20=
PLAYORDER=
